# xmcd
#
# Track frame offsets:
#	150
#	18858
#	40326
#	60839
#	82743
#	111378
#	135161
#	156000
#	176934
#	198595
#
# Disc length: 2923 seconds
#
# Revision: 1
# Processed by: cddbd v1.5.2PL0 Copyright (c) Steve Scherf et al.
# Submitted via: EasyCDDAExtractor 16.0.9.1
#
DISCID=750b690a
DTITLE=Cẩm Ly - BNTCD: Mùa Mưa Đi Qua
DYEAR=2005
DGENRE=Country
TTITLE0=Mùa Mưa Đi Qua (Hà Phương - Du Uyên)
TTITLE1=Em Về Kẻo Trời Mưa (Ngân Giang)
TTITLE2=Người Đã Quên (Hàn Châu)
TTITLE3=Tội Tình (Hàn Châu)
TTITLE4=Má Hồng Đà Lạt (Minh Kỳ - Lan Anh)
TTITLE5=Ăn Năn (Hoàng Trang)
TTITLE6=Lỡ Lầm (Tuấn Hải - Kim Khánh)
TTITLE7=Mưa Qua Phố Vắng (Hà Phương)
TTITLE8=Hạ Thương (Hàn Châu - Thanh Phương)
TTITLE9=Thà Trắng Thà Đen (Vinh Sử - Giao Tiên)
EXTD=HoÌa âm: Minh Khang, Lyì HuyÌnh Long, Tâìn Phong, Anh Khoa, Kim Lõòi Stud
EXTD=io.\n
EXTT0=Saìng taìc: HaÌ Phýõng - Du Uyên\n
EXTT1=Saìng taìc: Ngân Giang\n
EXTT2=Saìng taìc: HaÌn Châu\n
EXTT3=Saìng taìc: HaÌn Châu\n
EXTT4=Saìng taìc: Minh KyÌ - Lan Anh\n
EXTT5=Saìng taìc: HoaÌng Trang\n
EXTT6=Saìng taìc: Tuâìn HaÒi - Kim Khaình\n
EXTT7=Saìng taìc: HaÌ Phýõng\n
EXTT8=Saìng taìc: HaÌn Châu - Thanh Phýõng\n
EXTT9=Saìng taìc: Minh SýÒ - Giao Tiên\n
PLAYORDER=
